<mxfile host="Electron" agent="Mozilla/5.0 (Windows NT 10.0; Win64; x64) AppleWebKit/537.36 (KHTML, like Gecko) draw.io/24.7.17 Chrome/128.0.6613.36 Electron/32.0.1 Safari/537.36" version="24.7.17">
  <diagram name="Page-1" id="MBMp9kpRw3ThS6dHtv7K">
    <mxGraphModel dx="1900" dy="621" grid="1" gridSize="10" guides="1" tooltips="1" connect="1" arrows="1" fold="1" page="1" pageScale="1" pageWidth="850" pageHeight="1100" math="0" shadow="0">
      <root>
        <mxCell id="0" />
        <mxCell id="1" parent="0" />
        <mxCell id="vYMbTAoIUmaKsaz3K42w-51" style="edgeStyle=orthogonalEdgeStyle;rounded=0;orthogonalLoop=1;jettySize=auto;html=1;" parent="1" source="vYMbTAoIUmaKsaz3K42w-3" target="vYMbTAoIUmaKsaz3K42w-10" edge="1">
          <mxGeometry relative="1" as="geometry" />
        </mxCell>
        <mxCell id="vYMbTAoIUmaKsaz3K42w-3" value="Fala com" style="rhombus;whiteSpace=wrap;html=1;" parent="1" vertex="1">
          <mxGeometry x="-290" y="605" width="120" height="40" as="geometry" />
        </mxCell>
        <mxCell id="vYMbTAoIUmaKsaz3K42w-20" style="edgeStyle=orthogonalEdgeStyle;rounded=0;orthogonalLoop=1;jettySize=auto;html=1;exitX=0.5;exitY=1;exitDx=0;exitDy=0;entryX=0.5;entryY=0;entryDx=0;entryDy=0;" parent="1" source="vYMbTAoIUmaKsaz3K42w-9" target="vYMbTAoIUmaKsaz3K42w-3" edge="1">
          <mxGeometry relative="1" as="geometry" />
        </mxCell>
        <mxCell id="vYMbTAoIUmaKsaz3K42w-22" style="edgeStyle=orthogonalEdgeStyle;rounded=0;orthogonalLoop=1;jettySize=auto;html=1;exitX=1;exitY=0.5;exitDx=0;exitDy=0;entryX=0;entryY=0.5;entryDx=0;entryDy=0;" parent="1" source="vYMbTAoIUmaKsaz3K42w-9" target="vYMbTAoIUmaKsaz3K42w-11" edge="1">
          <mxGeometry relative="1" as="geometry" />
        </mxCell>
        <mxCell id="m-nfOf8Dg2doQLkYgH_p-7" style="edgeStyle=orthogonalEdgeStyle;rounded=0;orthogonalLoop=1;jettySize=auto;html=1;exitX=0;exitY=0.5;exitDx=0;exitDy=0;entryX=1;entryY=0.5;entryDx=0;entryDy=0;" parent="1" source="vYMbTAoIUmaKsaz3K42w-9" target="m-nfOf8Dg2doQLkYgH_p-4" edge="1">
          <mxGeometry relative="1" as="geometry" />
        </mxCell>
        <mxCell id="vYMbTAoIUmaKsaz3K42w-9" value="Cliente" style="rounded=0;whiteSpace=wrap;html=1;" parent="1" vertex="1">
          <mxGeometry x="-290" y="525" width="120" height="40" as="geometry" />
        </mxCell>
        <mxCell id="vYMbTAoIUmaKsaz3K42w-52" style="edgeStyle=orthogonalEdgeStyle;rounded=0;orthogonalLoop=1;jettySize=auto;html=1;entryX=0;entryY=0.5;entryDx=0;entryDy=0;" parent="1" source="vYMbTAoIUmaKsaz3K42w-10" target="vYMbTAoIUmaKsaz3K42w-12" edge="1">
          <mxGeometry relative="1" as="geometry" />
        </mxCell>
        <mxCell id="vYMbTAoIUmaKsaz3K42w-58" style="edgeStyle=orthogonalEdgeStyle;rounded=0;orthogonalLoop=1;jettySize=auto;html=1;entryX=0;entryY=0.5;entryDx=0;entryDy=0;" parent="1" source="vYMbTAoIUmaKsaz3K42w-10" target="vYMbTAoIUmaKsaz3K42w-57" edge="1">
          <mxGeometry relative="1" as="geometry">
            <Array as="points">
              <mxPoint x="-245" y="785" />
            </Array>
          </mxGeometry>
        </mxCell>
        <mxCell id="m-nfOf8Dg2doQLkYgH_p-23" style="edgeStyle=orthogonalEdgeStyle;rounded=0;orthogonalLoop=1;jettySize=auto;html=1;entryX=1;entryY=0.5;entryDx=0;entryDy=0;" parent="1" source="vYMbTAoIUmaKsaz3K42w-10" target="m-nfOf8Dg2doQLkYgH_p-10" edge="1">
          <mxGeometry relative="1" as="geometry" />
        </mxCell>
        <mxCell id="m-nfOf8Dg2doQLkYgH_p-24" style="edgeStyle=orthogonalEdgeStyle;rounded=0;orthogonalLoop=1;jettySize=auto;html=1;" parent="1" source="vYMbTAoIUmaKsaz3K42w-10" target="m-nfOf8Dg2doQLkYgH_p-15" edge="1">
          <mxGeometry relative="1" as="geometry" />
        </mxCell>
        <mxCell id="vYMbTAoIUmaKsaz3K42w-10" value="Empregado" style="rounded=0;whiteSpace=wrap;html=1;" parent="1" vertex="1">
          <mxGeometry x="-290" y="685" width="120" height="40" as="geometry" />
        </mxCell>
        <mxCell id="vYMbTAoIUmaKsaz3K42w-11" value="Realiza" style="rhombus;whiteSpace=wrap;html=1;" parent="1" vertex="1">
          <mxGeometry x="-130" y="525" width="120" height="40" as="geometry" />
        </mxCell>
        <mxCell id="vYMbTAoIUmaKsaz3K42w-54" style="edgeStyle=orthogonalEdgeStyle;rounded=0;orthogonalLoop=1;jettySize=auto;html=1;entryX=0;entryY=0.5;entryDx=0;entryDy=0;" parent="1" source="vYMbTAoIUmaKsaz3K42w-12" target="vYMbTAoIUmaKsaz3K42w-14" edge="1">
          <mxGeometry relative="1" as="geometry" />
        </mxCell>
        <mxCell id="vYMbTAoIUmaKsaz3K42w-55" style="edgeStyle=orthogonalEdgeStyle;rounded=0;orthogonalLoop=1;jettySize=auto;html=1;entryX=0;entryY=0.5;entryDx=0;entryDy=0;" parent="1" source="vYMbTAoIUmaKsaz3K42w-12" target="vYMbTAoIUmaKsaz3K42w-15" edge="1">
          <mxGeometry relative="1" as="geometry" />
        </mxCell>
        <mxCell id="vYMbTAoIUmaKsaz3K42w-12" value="Realiza" style="rhombus;whiteSpace=wrap;html=1;" parent="1" vertex="1">
          <mxGeometry x="-130" y="685" width="120" height="40" as="geometry" />
        </mxCell>
        <mxCell id="vYMbTAoIUmaKsaz3K42w-62" style="edgeStyle=orthogonalEdgeStyle;rounded=0;orthogonalLoop=1;jettySize=auto;html=1;exitX=1;exitY=0.5;exitDx=0;exitDy=0;entryX=0;entryY=0.5;entryDx=0;entryDy=0;" parent="1" source="vYMbTAoIUmaKsaz3K42w-14" target="vYMbTAoIUmaKsaz3K42w-18" edge="1">
          <mxGeometry relative="1" as="geometry" />
        </mxCell>
        <mxCell id="vYMbTAoIUmaKsaz3K42w-14" value="Reserva" style="rounded=0;whiteSpace=wrap;html=1;" parent="1" vertex="1">
          <mxGeometry x="30" y="645" width="120" height="40" as="geometry" />
        </mxCell>
        <mxCell id="vYMbTAoIUmaKsaz3K42w-37" style="edgeStyle=orthogonalEdgeStyle;rounded=0;orthogonalLoop=1;jettySize=auto;html=1;entryX=0.25;entryY=1;entryDx=0;entryDy=0;" parent="1" target="vYMbTAoIUmaKsaz3K42w-18" edge="1">
          <mxGeometry relative="1" as="geometry">
            <mxPoint x="151" y="745.0000000000002" as="sourcePoint" />
            <mxPoint x="220.51999999999998" y="632.7199999999998" as="targetPoint" />
          </mxGeometry>
        </mxCell>
        <mxCell id="vYMbTAoIUmaKsaz3K42w-15" value="Manutenção" style="rounded=0;whiteSpace=wrap;html=1;" parent="1" vertex="1">
          <mxGeometry x="30" y="725" width="120" height="40" as="geometry" />
        </mxCell>
        <mxCell id="vYMbTAoIUmaKsaz3K42w-64" style="edgeStyle=orthogonalEdgeStyle;rounded=0;orthogonalLoop=1;jettySize=auto;html=1;entryX=0.5;entryY=1;entryDx=0;entryDy=0;" parent="1" source="vYMbTAoIUmaKsaz3K42w-18" target="vYMbTAoIUmaKsaz3K42w-25" edge="1">
          <mxGeometry relative="1" as="geometry" />
        </mxCell>
        <mxCell id="m-nfOf8Dg2doQLkYgH_p-27" style="edgeStyle=orthogonalEdgeStyle;rounded=0;orthogonalLoop=1;jettySize=auto;html=1;entryX=0;entryY=0.5;entryDx=0;entryDy=0;" parent="1" source="vYMbTAoIUmaKsaz3K42w-18" target="m-nfOf8Dg2doQLkYgH_p-26" edge="1">
          <mxGeometry relative="1" as="geometry" />
        </mxCell>
        <mxCell id="m-nfOf8Dg2doQLkYgH_p-28" style="edgeStyle=orthogonalEdgeStyle;rounded=0;orthogonalLoop=1;jettySize=auto;html=1;" parent="1" source="vYMbTAoIUmaKsaz3K42w-18" target="m-nfOf8Dg2doQLkYgH_p-25" edge="1">
          <mxGeometry relative="1" as="geometry" />
        </mxCell>
        <mxCell id="vYMbTAoIUmaKsaz3K42w-18" value="Carro" style="rounded=0;whiteSpace=wrap;html=1;" parent="1" vertex="1">
          <mxGeometry x="190" y="605" width="120" height="40" as="geometry" />
        </mxCell>
        <mxCell id="vYMbTAoIUmaKsaz3K42w-23" style="edgeStyle=orthogonalEdgeStyle;rounded=0;orthogonalLoop=1;jettySize=auto;html=1;entryX=0;entryY=0.5;entryDx=0;entryDy=0;" parent="1" source="vYMbTAoIUmaKsaz3K42w-11" target="vYMbTAoIUmaKsaz3K42w-13" edge="1">
          <mxGeometry relative="1" as="geometry" />
        </mxCell>
        <mxCell id="m-nfOf8Dg2doQLkYgH_p-22" style="edgeStyle=orthogonalEdgeStyle;rounded=0;orthogonalLoop=1;jettySize=auto;html=1;entryX=0.5;entryY=0;entryDx=0;entryDy=0;" parent="1" source="vYMbTAoIUmaKsaz3K42w-25" target="vYMbTAoIUmaKsaz3K42w-9" edge="1">
          <mxGeometry relative="1" as="geometry">
            <Array as="points">
              <mxPoint x="250" y="505" />
              <mxPoint x="-230" y="505" />
            </Array>
          </mxGeometry>
        </mxCell>
        <mxCell id="vYMbTAoIUmaKsaz3K42w-25" value="É recebido por&amp;nbsp;" style="rhombus;whiteSpace=wrap;html=1;" parent="1" vertex="1">
          <mxGeometry x="190" y="525" width="120" height="40" as="geometry" />
        </mxCell>
        <mxCell id="vYMbTAoIUmaKsaz3K42w-61" style="edgeStyle=orthogonalEdgeStyle;rounded=0;orthogonalLoop=1;jettySize=auto;html=1;entryX=1;entryY=0.5;entryDx=0;entryDy=0;" parent="1" source="vYMbTAoIUmaKsaz3K42w-13" target="vYMbTAoIUmaKsaz3K42w-3" edge="1">
          <mxGeometry relative="1" as="geometry">
            <Array as="points">
              <mxPoint x="75" y="625" />
            </Array>
          </mxGeometry>
        </mxCell>
        <mxCell id="vYMbTAoIUmaKsaz3K42w-13" value="Entrega" style="rounded=0;whiteSpace=wrap;html=1;" parent="1" vertex="1">
          <mxGeometry x="30" y="525" width="120" height="40" as="geometry" />
        </mxCell>
        <mxCell id="vYMbTAoIUmaKsaz3K42w-65" style="edgeStyle=orthogonalEdgeStyle;rounded=0;orthogonalLoop=1;jettySize=auto;html=1;entryX=0.75;entryY=1;entryDx=0;entryDy=0;" parent="1" source="vYMbTAoIUmaKsaz3K42w-57" target="vYMbTAoIUmaKsaz3K42w-18" edge="1">
          <mxGeometry relative="1" as="geometry" />
        </mxCell>
        <mxCell id="vYMbTAoIUmaKsaz3K42w-57" value="Recebe" style="rhombus;whiteSpace=wrap;html=1;" parent="1" vertex="1">
          <mxGeometry x="-130" y="765" width="120" height="40" as="geometry" />
        </mxCell>
        <mxCell id="m-nfOf8Dg2doQLkYgH_p-1" value="Informação Privada" style="rounded=0;whiteSpace=wrap;html=1;" parent="1" vertex="1">
          <mxGeometry x="-610" y="485" width="120" height="40" as="geometry" />
        </mxCell>
        <mxCell id="m-nfOf8Dg2doQLkYgH_p-2" value="Morada" style="rounded=0;whiteSpace=wrap;html=1;" parent="1" vertex="1">
          <mxGeometry x="-610" y="565" width="120" height="40" as="geometry" />
        </mxCell>
        <mxCell id="m-nfOf8Dg2doQLkYgH_p-8" style="edgeStyle=orthogonalEdgeStyle;rounded=0;orthogonalLoop=1;jettySize=auto;html=1;entryX=1;entryY=0.5;entryDx=0;entryDy=0;" parent="1" source="m-nfOf8Dg2doQLkYgH_p-4" target="m-nfOf8Dg2doQLkYgH_p-1" edge="1">
          <mxGeometry relative="1" as="geometry" />
        </mxCell>
        <mxCell id="m-nfOf8Dg2doQLkYgH_p-9" style="edgeStyle=orthogonalEdgeStyle;rounded=0;orthogonalLoop=1;jettySize=auto;html=1;entryX=1;entryY=0.5;entryDx=0;entryDy=0;" parent="1" source="m-nfOf8Dg2doQLkYgH_p-4" target="m-nfOf8Dg2doQLkYgH_p-2" edge="1">
          <mxGeometry relative="1" as="geometry" />
        </mxCell>
        <mxCell id="m-nfOf8Dg2doQLkYgH_p-4" value="Tem" style="rhombus;whiteSpace=wrap;html=1;" parent="1" vertex="1">
          <mxGeometry x="-450" y="525" width="120" height="40" as="geometry" />
        </mxCell>
        <mxCell id="m-nfOf8Dg2doQLkYgH_p-5" value="Informação Privada" style="rounded=0;whiteSpace=wrap;html=1;" parent="1" vertex="1">
          <mxGeometry x="-610" y="645" width="120" height="40" as="geometry" />
        </mxCell>
        <mxCell id="m-nfOf8Dg2doQLkYgH_p-6" value="Departamento" style="rounded=0;whiteSpace=wrap;html=1;" parent="1" vertex="1">
          <mxGeometry x="-610" y="725" width="120" height="40" as="geometry" />
        </mxCell>
        <mxCell id="m-nfOf8Dg2doQLkYgH_p-14" style="edgeStyle=orthogonalEdgeStyle;rounded=0;orthogonalLoop=1;jettySize=auto;html=1;exitX=0;exitY=0.5;exitDx=0;exitDy=0;" parent="1" source="m-nfOf8Dg2doQLkYgH_p-10" target="m-nfOf8Dg2doQLkYgH_p-5" edge="1">
          <mxGeometry relative="1" as="geometry" />
        </mxCell>
        <mxCell id="m-nfOf8Dg2doQLkYgH_p-10" value="Tem" style="rhombus;whiteSpace=wrap;html=1;" parent="1" vertex="1">
          <mxGeometry x="-450" y="645" width="120" height="40" as="geometry" />
        </mxCell>
        <mxCell id="m-nfOf8Dg2doQLkYgH_p-19" style="edgeStyle=orthogonalEdgeStyle;rounded=0;orthogonalLoop=1;jettySize=auto;html=1;exitX=0;exitY=0.5;exitDx=0;exitDy=0;" parent="1" source="m-nfOf8Dg2doQLkYgH_p-15" target="m-nfOf8Dg2doQLkYgH_p-6" edge="1">
          <mxGeometry relative="1" as="geometry" />
        </mxCell>
        <mxCell id="m-nfOf8Dg2doQLkYgH_p-15" value="Pertence a" style="rhombus;whiteSpace=wrap;html=1;" parent="1" vertex="1">
          <mxGeometry x="-450" y="725" width="120" height="40" as="geometry" />
        </mxCell>
        <mxCell id="m-nfOf8Dg2doQLkYgH_p-32" style="edgeStyle=orthogonalEdgeStyle;rounded=0;orthogonalLoop=1;jettySize=auto;html=1;entryX=0;entryY=0.5;entryDx=0;entryDy=0;" parent="1" source="m-nfOf8Dg2doQLkYgH_p-25" target="m-nfOf8Dg2doQLkYgH_p-29" edge="1">
          <mxGeometry relative="1" as="geometry" />
        </mxCell>
        <mxCell id="m-nfOf8Dg2doQLkYgH_p-25" value="Pertence a" style="rhombus;whiteSpace=wrap;html=1;" parent="1" vertex="1">
          <mxGeometry x="350" y="565" width="120" height="40" as="geometry" />
        </mxCell>
        <mxCell id="m-nfOf8Dg2doQLkYgH_p-31" style="edgeStyle=orthogonalEdgeStyle;rounded=0;orthogonalLoop=1;jettySize=auto;html=1;entryX=0;entryY=0.5;entryDx=0;entryDy=0;" parent="1" source="m-nfOf8Dg2doQLkYgH_p-26" target="m-nfOf8Dg2doQLkYgH_p-30" edge="1">
          <mxGeometry relative="1" as="geometry" />
        </mxCell>
        <mxCell id="m-nfOf8Dg2doQLkYgH_p-26" value="Tem" style="rhombus;whiteSpace=wrap;html=1;" parent="1" vertex="1">
          <mxGeometry x="350" y="645" width="120" height="40" as="geometry" />
        </mxCell>
        <mxCell id="m-nfOf8Dg2doQLkYgH_p-29" value="Segmento" style="rounded=0;whiteSpace=wrap;html=1;" parent="1" vertex="1">
          <mxGeometry x="510" y="565" width="120" height="40" as="geometry" />
        </mxCell>
        <mxCell id="m-nfOf8Dg2doQLkYgH_p-30" value="Status" style="rounded=0;whiteSpace=wrap;html=1;" parent="1" vertex="1">
          <mxGeometry x="510" y="645" width="120" height="40" as="geometry" />
        </mxCell>
        <mxCell id="m-nfOf8Dg2doQLkYgH_p-33" value="&lt;b&gt;&lt;font style=&quot;font-size: 20px;&quot;&gt;Use Case Passeios – Serviços de Aluguer de Carros, Lda&lt;/font&gt;&lt;/b&gt;" style="rounded=0;whiteSpace=wrap;html=1;" parent="1" vertex="1">
          <mxGeometry x="-280" y="320" width="560" height="80" as="geometry" />
        </mxCell>
      </root>
    </mxGraphModel>
  </diagram>
</mxfile>
